<?xml version="1.0" encoding="utf-8"?>
<!-- Designed by Vexels.com - 2016 All Rights Reserved - https://vexels.com/terms-and-conditions/  -->

<svg version="1.1" id="Layer_1" xmlns="http://www.w3.org/2000/svg" xmlns:xlink="http://www.w3.org/1999/xlink" x="0px" y="0px"
	 width="1200px" height="1200px" viewBox="0 0 1200 1200" enable-background="new 0 0 1200 1200" xml:space="preserve">
<g>
	<path fill="#E0B278" d="M836.89,199.437c-16.576,2.47-27.753,19.611-24.98,38.175c2.763,18.585,18.47,31.719,35.046,29.228
		c16.545-2.449,27.763-19.6,24.98-38.175C869.183,210.069,853.445,196.968,836.89,199.437z"/>
	<path fill="#E0B278" d="M594.821,651.467c28.307,48.86,37.453,113.123,72.039,157.232c34.313,43.679,104.479,38.437,128.045-9.167
		l-0.063-0.084c38.552-36.417,23.096-104.992-28.641-125.032c-52.281-20.281-116.398-10.213-171.391-23.064l-0.136-0.125
		c0,0,0.011,0.062,0.053,0.094c-0.053-0.032-0.115-0.032-0.178-0.043L594.821,651.467z M736.074,712.811
		c20.227,8.445,77.93,51.738,46.682,77.103c-0.136,0.136-0.199,0.357-0.303,0.492l0.031,0.043c-0.105,0.135-0.22,0.24-0.292,0.365
		c-15.132,37.296-73.41-5.253-87.38-22.132c-14.547-17.622-22.542-40.341-27.554-63.625
		C691.013,702.984,715.008,704.073,736.074,712.811z"/>
	<path fill="#E0B278" d="M936.409,541.369c-3.464,15.477-4.501,30.525-3.715,45.259c-0.555,7.294-0.261,14.536,2.24,20.406
		c4.845,28.883,16.083,56.76,29.572,84.492c15.624,32.116,34.481,65.07,41.785,100.356c3.726,18.135,3.967,36.616,0.733,53.967
		c-30.117-70.898-144.255-93.355-200.429-37.558l0.073,0.063c-36.929,70.008,17.854,172.52,94.423,180.65
		c-15.665,8.131-33.372,13.343-51.822,15.048c-35.852,3.328-72.938-5.095-108.183-10.705c-30.462-4.761-60.391-7.429-89.442-3.61
		c-6.351-0.69-13.384,1.131-20.176,3.82c-14.315,3.516-28.39,8.894-42.182,16.701c-29.175,16.618-42.978,60.476-20.479,87.37
		c2.051,2.501,4.447,4.834,7.137,6.97c26.225,20.918,75.607,12.557,90.729-18.617c-21.401,30.609-66.189,16.659-73.787-17.037
		c-14.001-61.93,90.478-45.155,122.814-34.146c55.306,18.825,111.082,35.496,170.092,38.164
		c61.146,2.804,131.51-20.479,163.615-73.524c-2.585,6.006-3.684,12.736-2.637,19.715c2.982,19.977,21.578,33.739,41.555,30.766
		c19.977-2.982,33.748-21.588,30.777-41.544c-2.972-20.009-21.62-33.78-41.576-30.788c-7.43,1.089-14.053,4.437-19.234,9.157
		c43.261-46.023,45.385-121.462,24.571-180.054c-19.758-55.641-52.01-104.092-86.167-151.549
		c-19.914-27.731-66.46-122.729-3.118-127.439c34.44-2.543,60.862,36.249,37.809,65.656c25.408-23.619,19.015-73.221-8.654-92.246
		c-2.835-1.947-5.766-3.516-8.748-4.782C981.657,482.61,943.776,508.657,936.409,541.369z M870.648,952.87
		c-23.848-15.509-39.546-26.915-49.214-54.501c-8.875-25.345-9.868-55.012-3.108-81.53l-0.042,0.011
		c23.42-14.19,52.009-21.829,78.757-20.782c29.259,1.224,44.758,12.903,66.565,31.195c6.563,5.494,12.861,15.048,19.852,19.412
		c-36.06-22.635-81.729-16.889-115.006,7.42l0.084,0.063c-13.5,38.918-5.641,84.188,26.496,112.086
		C888.816,960.844,877.828,957.537,870.648,952.87z M885.446,866.547l-0.042-0.042c31.572-20.678,82.943-11.636,105.85,20.364
		c-8.518,13.364-20.071,24.55-34.565,32.545l0.074,0.105c-3.443,16.178-10.779,30.462-21.045,42.466
		C898.359,949.396,874.772,902.797,885.446,866.547z M1053.832,991.683c0.042-0.125,0.094-0.229,0.125-0.334l0,0
		c1.412-1.371,2.616-2.826,3.977-4.227C1056.428,988.492,1055.047,990.031,1053.832,991.683z M1013.198,731.585
		c9.062,20.154,22.96,37.767,31.247,58.57c23.274,58.739,29.897,134.848-11.155,185.989l0.052,0.051
		c-36.982,54.113-111.679,70.019-174.614,64.808c-22.3-1.79-43.177-9.931-65.11-12.767c20.521,2.961,45.542,0.094,66-2.815
		c19.423-2.731,39.933-6.77,57.724-15.184c32.378-15.268,58.476-34.628,78.129-62.213l-0.021-0.042
		c20.564-26.8,31.425-57.409,36.616-92.79c2.868-19.474,0.744-40.236-2.302-59.658
		C1026.519,775.129,1021.999,750.4,1013.198,731.585z"/>
	<path fill="#E0B278" d="M154.271,1130.037c62.882,37.683,132.283,19.391,179.353-32.848
		c44.517-49.426,40.948-146.463-35.674-162.506c-45.689-9.533-107.587,18.952-115.749,69.235
		c-6.802,41.575,20.134,70.584,57.984,81.875c40.059,12.003,83.414-11.375,102.198-48.263c-4.636,37.526-36.48,61.28-68.983,76.214
		c-40.132,18.491-81.446,8.393-113.039-20.72c-44.643-41.084-45.26-113.113-1.339-153.495
		c40.686-37.36,107.701-42.56,158.476-27.742c61.71,17.894,107.127,98.294,176.549,78.998
		c39.222-10.894,58.843-68.994,22.624-95.627c15.792,31.719-5.002,65.383-41.533,51.13c-21.401-8.351-24.279-30.892-20.041-51.329
		c6.96-33.581,42.309-58.561,74.54-62.432c61.145-7.387,79.113,80.704,107.127,118.083c25.534,34.084,65.382,32.503,99.246,14.023
		c45.249-24.706,52.145-83.832,40.979-128.904c-4.782,40.948-36.594,105.504-89.765,84.251c-27.9-11.123-32.661-50.45-38.51-75.554
		c-11.103-47.27-41.157-94.413-91.859-102.481c-0.481-0.158-1.046-0.303-1.831-0.335c-0.345-0.062-0.753-0.084-1.151-0.062
		c-94.359-4.626-193.857,74.853-174.487,171.431c-86.919-73.65-240.006-64.651-289.326,49.561
		C62.349,1026.594,98.243,1096.445,154.271,1130.037z M273.567,1054.587c-26.706,3.986-51.444-12.893-55.117-37.547
		c-3.684-24.655,15.048-47.97,41.775-51.958c26.664-3.966,51.392,12.861,55.065,37.516
		C318.973,1027.253,300.253,1050.62,273.567,1054.587z M425.148,858.227c6.457-21.724,22.342-46.159,39.975-60.14
		c13.186-10.475,27.971-16.963,43.825-19.328c10.716-1.58,21.892-1.287,33.393,0.942c58.655,11.396,77.638,50.691,94.779,96.987
		l0.722,2.02c7.377,19.935,15.989,47.844,35.266,59.721c25.031,15.446,53.61,3.726,73.032-13.604
		c-11.867,14.556-17.874,24.341-36.449,29.677c-17.465,4.982-32.806,6.143-48.032-5.902c-19.862-15.55-29.332-41.931-37.767-64.734
		c-0.011-0.042-0.743-2.009-0.743-2.009c-16.649-44.987-32.378-77.543-83.675-87.567c-24.31-4.741-46.275,0.449-65.111,15.435
		c-10.015,7.911-18.135,17.989-24.728,28.872c-19.936,32.984-35.37,85.716-5.891,118.271
		C418.136,939.674,417.499,884.191,425.148,858.227z"/>
	<path fill="#E0B278" d="M262.412,979.807c-18.595,2.783-31.719,18.501-29.249,35.025c2.47,16.545,19.6,27.804,38.196,25.031
		c18.575-2.783,31.718-18.553,29.227-35.088C298.128,988.241,281.008,977.043,262.412,979.807z"/>
	<path fill="#E0B278" d="M856.27,844.927c20.166-15.624,45.658-26.716,70.679-27.563c-28.684-12.411-67.518-5.421-95.574,9.293
		l0.094,0.084c-5.819,31.048-1.183,70.228,19.045,93.983c-6.498-24.247-3.327-51.863,5.808-75.754L856.27,844.927z"/>
	<path fill="#E0B278" d="M1008.227,957.6l0.084,0.042c-10.632,15.969-24.372,30.85-44.359,42.371
		c-18.878,10.883-39.682,19.495-59.984,26.684c42.602-3.872,90.656-18.323,117.643-59.345l-0.084-0.02
		c31.31-37.777,31.102-87.872,22.363-129.689c-0.942,21.495-3.097,43.89-8.026,65.153
		C1030.642,925.286,1020.418,942.782,1008.227,957.6z"/>
	<path fill="#E0B278" d="M669.424,587.027c0.261,0.69,0.544,1.234,0.848,1.643c22.541,46.096,76.371,61.166,124.844,57.942
		c25.691-1.695,64.692-8.654,83.508,14.828c35.81,44.642-16.639,93.868-54.438,110.412c46.39-2.428,100.911-26.319,111.354-76.789
		c7.775-37.746-2.292-76.371-42.35-90.833c-43.93-15.885-133.424-7.387-144.213-68.01c-5.693-32.001,7.879-73.085,37.954-89.567
		c18.324-10.003,40.761-13.823,54.951,4.26c24.32,30.777-1.853,60.434-36.773,54.615c36.03,26.852,85.915-8.822,84.848-49.529
		c-1.768-72.059-91.91-92.026-127.061-145.825c-28.935-44.286-43.564-109.91-19.653-159.69
		c25.784-53.82,94.852-74.226,147.206-43.513c37.044,21.746,58.717,58.32,52.795,102.114c-4.866,35.434-18.251,72.813-52.795,88.196
		c29.782-28.746,39.504-77.051,16.346-111.846c-21.84-32.901-57.451-50.21-95.249-31.593c-45.678,22.5-54.866,90.049-32.429,130.965
		c37.693,68.565,131.55,43.701,165.843-13.342c36.24-60.245,33.445-131.907-20.94-181.09
		c-48.419-43.816-125.733-57.712-178.925-12.589c-94.862,80.494-58.769,229.531,37.024,291.221
		c-98.054,9.647-145.081,128.024-113.091,216.879C669.12,586.283,669.226,586.671,669.424,587.027z M849.133,281.553
		c-24.654,3.663-47.949-15.048-51.935-41.733c-3.977-26.695,12.85-51.455,37.515-55.107c24.655-3.683,47.981,15.059,51.978,41.754
		C890.657,253.173,873.809,277.879,849.133,281.553z M697.208,484.546c8.246-20.972,27.009-43.313,45.887-55.808
		c22.582-14.881,75.838-30.463,99.76-10.977c-39.765-18.701-85.654,11.395-111.417,40.11c-8.465,9.502-15.707,20.25-20.395,32.127
		c-8.801,22.405-7.346,44.862,4.26,66.754c24.497,46.149,60.255,51.695,108.173,54.531l2.114,0.084
		c24.267,1.424,52.281,2.805,72.969,17.193c15.907,11.104,19.297,26.089,19.591,44.286c0.334,19.329-7.252,27.909-17.707,43.491
		c10.883-23.619,13.783-54.363-8.309-73.807c-16.994-14.932-46.19-15.09-67.424-16.293l-2.145-0.136
		c-49.298-2.877-92.392-9.564-120.417-62.348c-5.483-10.349-8.988-20.992-10.589-31.708
		C689.202,516.244,691.065,500.212,697.208,484.546z"/>
</g>
</svg>
